<?xml version="1.0" encoding="UTF-8" standalone="no"?>
<svg
   xmlns:dc="http://purl.org/dc/elements/1.1/"
   xmlns:cc="http://creativecommons.org/ns#"
   xmlns:rdf="http://www.w3.org/1999/02/22-rdf-syntax-ns#"
   xmlns:svg="http://www.w3.org/2000/svg"
   xmlns="http://www.w3.org/2000/svg"
   id="svg2"
   viewBox="0 0 1200 520"
   height="520"
   width="1200"
   version="1.1">
  <metadata
     id="metadata62">
    <rdf:RDF>
      <cc:Work
         rdf:about="">
        <dc:format>image/svg+xml</dc:format>
        <dc:type
           rdf:resource="http://purl.org/dc/dcmitype/StillImage" />
        <dc:title></dc:title>
      </cc:Work>
    </rdf:RDF>
  </metadata>
  <defs
     id="defs60">
    <clipPath
       id="clipPath5367"
       clipPathUnits="userSpaceOnUse">
      <g
         style="font-style:normal;font-variant:normal;font-weight:500;font-stretch:normal;font-size:768.5px;line-height:125%;font-family:Roboto;-inkscape-font-specification:'Roboto, Medium';text-align:start;letter-spacing:0px;word-spacing:0px;writing-mode:lr-tb;text-anchor:start;opacity:0.98000004;fill:#ffffff;fill-opacity:0;stroke:#323232;stroke-width:10;stroke-linecap:round;stroke-linejoin:round;stroke-miterlimit:4;stroke-dasharray:none;stroke-opacity:1"
         id="g5369"
         transform="translate(-220.74575,-672.27115)">
        <path
           d="m -2458.9519,1276.724 v 203.0071 h -94.9368 V 933.37561 h 209.011 q 91.5596,0 145.2195,47.65601 54.0352,47.65598 54.0352,126.08198 0,80.3023 -52.9095,124.9563 -52.5342,44.6541 -147.4709,44.6541 z m 0,-76.1746 h 114.0742 q 50.658,0 77.3003,-23.6403 26.6423,-24.0157 26.6423,-69.045 0,-44.2788 -27.0175,-70.5459 -27.0176,-26.6423 -74.2984,-27.3928 h -116.7009 z"
           id="path5371" />
      </g>
    </clipPath>
    <filter
       height="1.576"
       y="-0.28799999"
       width="1.1152"
       x="-0.057599999"
       id="filter5263-1"
       style="color-interpolation-filters:sRGB">
      <feGaussianBlur
         id="feGaussianBlur5265-4"
         stdDeviation="11.137627" />
    </filter>
    <filter
       height="1.1152"
       y="-0.057600006"
       width="1.5759999"
       x="-0.2879999"
       id="filter5557-8"
       style="color-interpolation-filters:sRGB">
      <feGaussianBlur
         id="feGaussianBlur5559-6"
         stdDeviation="11.137628" />
    </filter>
    <filter
       height="1.576"
       y="-0.28800002"
       width="1.1152"
       x="-0.057599999"
       id="filter5275-9"
       style="color-interpolation-filters:sRGB">
      <feGaussianBlur
         id="feGaussianBlur5277-2"
         stdDeviation="11.137627" />
    </filter>
    <clipPath
       clipPathUnits="userSpaceOnUse"
       id="clipPath4734">
      <path
         d="M 0,595.28 H 841.89 V 0 H 0 Z"
         id="path4736" />
    </clipPath>
    <filter
       id="filter4930"
       style="color-interpolation-filters:sRGB">
      <feColorMatrix
         result="fbSourceGraphic"
         id="feColorMatrix4932"
         values="0.52 0.35 0.31 0.104167 0 0.52 0.35 0.31 0.104167 0 0.52 0.35 0.31 0.104167 0 0 0 0 1 0 " />
      <feColorMatrix
         id="feColorMatrix4934"
         values="0 0 0 -1 0 0 0 0 -1 0 0 0 0 -1 0 0 0 0 1 0"
         in="fbSourceGraphic"
         result="fbSourceGraphicAlpha" />
      <feColorMatrix
         in="fbSourceGraphic"
         values="0.52 0.35 0.31 0.1 0 0.52 0.35 0.31 0.1 0 0.52 0.35 0.31 0.1 0 0 0 0 1 0 "
         id="feColorMatrix4936" />
    </filter>
  </defs>
  <g
     transform="translate(-276.90009,310.51584)"
     id="g1299">
    <rect
       y="-310.51584"
       x="276.90009"
       height="520"
       width="1200"
       id="rect4628"
       style="opacity:1;fill:#5d5d5d;fill-opacity:0.98039216;fill-rule:nonzero;stroke:none;stroke-width:90.71733093;stroke-linecap:round;stroke-linejoin:round;stroke-miterlimit:4;stroke-dasharray:none;stroke-dashoffset:0;stroke-opacity:1" />
    <g
       id="g1241"
       transform="matrix(4.6108413,0,0,4.6108413,-984.62338,-727.60241)">
      <g
         transform="matrix(0.13658138,0,0,0.13744612,459.70099,57.463435)"
         id="g4636">
        <path
           id="path4638"
           d="m -1169.3056,464.21484 h 371.2542 c 25.70935,0 46.40678,20.69743 46.40678,46.40678 0,25.70935 -20.69743,46.40678 -46.40678,46.40678 h -371.2542 c -25.7094,0 -46.4068,-20.69743 -46.4068,-46.40678 0,-25.70935 20.6974,-46.40678 46.4068,-46.40678 z"
           style="opacity:1;fill:#000000;fill-opacity:0.2745098;stroke:none;stroke-width:4.4000001;stroke-linecap:butt;stroke-linejoin:miter;stroke-miterlimit:4;stroke-dasharray:none;stroke-dashoffset:0;stroke-opacity:1;filter:url(#filter5263-1)" />
        <path
           id="path4640"
           d="m -1169.3056,454.21484 h 371.2542 c 25.70935,0 46.40678,20.69743 46.40678,46.40678 0,25.70935 -20.69743,46.40678 -46.40678,46.40678 h -371.2542 c -25.7094,0 -46.4068,-20.69743 -46.4068,-46.40678 0,-25.70935 20.6974,-46.40678 46.4068,-46.40678 z"
           style="opacity:1;fill:#fa5422;fill-opacity:1;stroke:none;stroke-width:4.4000001;stroke-linecap:butt;stroke-linejoin:miter;stroke-miterlimit:4;stroke-dasharray:none;stroke-dashoffset:0;stroke-opacity:1" />
        <path
           style="opacity:1;fill:#000000;fill-opacity:0.2745098;stroke:none;stroke-width:4.4000001;stroke-linecap:butt;stroke-linejoin:miter;stroke-miterlimit:4;stroke-dasharray:none;stroke-dashoffset:0;stroke-opacity:1;filter:url(#filter5557-8)"
           d="m -1114.8988,500.62162 v 371.25423 c 0,25.70935 -20.6974,46.40677 -46.4068,46.40677 -25.7093,0 -46.4068,-20.69742 -46.4068,-46.40677 V 500.62162 c 0,-25.70935 20.6975,-46.40678 46.4068,-46.40678 25.7094,0 46.4068,20.69743 46.4068,46.40678 z"
           id="path4642" />
        <path
           id="path4644"
           d="m 500.62162,1122.8988 h 371.25423 c 25.70935,0 46.40677,20.6974 46.40677,46.4068 0,25.7093 -20.69742,46.4068 -46.40677,46.4068 H 500.62162 c -25.70935,0 -46.40678,-20.6975 -46.40678,-46.4068 0,-25.7094 20.69743,-46.4068 46.40678,-46.4068 z"
           style="opacity:1;fill:#1892cc;fill-opacity:1;stroke:none;stroke-width:4.4000001;stroke-linecap:butt;stroke-linejoin:miter;stroke-miterlimit:4;stroke-dasharray:none;stroke-dashoffset:0;stroke-opacity:1"
           transform="rotate(90)" />
        <path
           id="path4646"
           d="m -1169.3056,835.46906 h 371.2542 c 25.70935,0 46.40678,20.69742 46.40678,46.40677 0,25.70936 -20.69743,46.40678 -46.40678,46.40678 h -371.2542 c -25.7094,0 -46.4068,-20.69742 -46.4068,-46.40678 0,-25.70935 20.6974,-46.40677 46.4068,-46.40677 z"
           style="opacity:1;fill:#000000;fill-opacity:0.2745098;stroke:none;stroke-width:4.4000001;stroke-linecap:butt;stroke-linejoin:miter;stroke-miterlimit:4;stroke-dasharray:none;stroke-dashoffset:0;stroke-opacity:1;filter:url(#filter5275-9)" />
        <path
           id="path4648"
           d="m -1169.3056,825.46906 h 371.2542 c 25.70935,0 46.40678,20.69742 46.40678,46.40677 0,25.70936 -20.69743,46.40678 -46.40678,46.40678 h -371.2542 c -25.7094,0 -46.4068,-20.69742 -46.4068,-46.40678 0,-25.70935 20.6974,-46.40677 46.4068,-46.40677 z"
           style="opacity:1;fill:#d0e841;fill-opacity:1;stroke:none;stroke-width:4.4000001;stroke-linecap:butt;stroke-linejoin:miter;stroke-miterlimit:4;stroke-dasharray:none;stroke-dashoffset:0;stroke-opacity:1" />
      </g>
      <g
         id="g1209">
        <text
           xml:space="preserve"
           style="font-style:normal;font-variant:normal;font-weight:normal;font-stretch:normal;font-size:2.55078769px;line-height:0%;font-family:'Century Gothic';-inkscape-font-specification:'Century Gothic, Normal';text-align:start;letter-spacing:0px;word-spacing:0px;writing-mode:lr-tb;text-anchor:start;fill:#d8d8d8;fill-opacity:1;stroke:none;stroke-width:0.42513129;stroke-linecap:butt;stroke-linejoin:miter;stroke-miterlimit:4;stroke-dasharray:none;stroke-opacity:1"
           x="315.45419"
           y="151.08688"
           id="text4650"><tspan
             x="315.45419"
             y="151.08688"
             id="tspan4658"
             style="font-size:16.68975449px;line-height:1.25;stroke-width:0.42513129"><tspan
               style="fill:#ffffff;fill-opacity:1;stroke-width:0.42513129;stroke-miterlimit:4;stroke-dasharray:none"
               id="tspan4676">O</tspan><tspan
               style="fill:#ffffff;fill-opacity:1;stroke-width:0.42513129"
               id="tspan4712">pen</tspan><tspan
               style="fill:#c4c4c4;fill-opacity:1;stroke-width:0.42513129"
               id="tspan4718">Launcher</tspan></tspan></text>
        <text
           xml:space="preserve"
           style="font-style:normal;font-variant:normal;font-weight:normal;font-stretch:normal;font-size:2.55078769px;line-height:0%;font-family:'Century Gothic';-inkscape-font-specification:'Century Gothic, Normal';text-align:start;letter-spacing:0px;word-spacing:0px;writing-mode:lr-tb;text-anchor:start;fill:#d8d8d8;fill-opacity:1;stroke:none;stroke-width:0.21256565px;stroke-linecap:butt;stroke-linejoin:miter;stroke-opacity:1"
           x="316.41626"
           y="164.77058"
           id="text4662"><tspan
             style="font-size:8.50262642px;line-height:1.25;stroke-width:0.21256565px"
             id="tspan4664"
             x="316.41626"
             y="164.77058">The ideal open source home screen for <tspan
   id="tspan4710"
   style="fill:#92cc74;fill-opacity:1;stroke-width:0.21256565px">Android</tspan></tspan></text>
      </g>
    </g>
  </g>
</svg>
